<svg width="40" height="40" viewBox="0 0 40 40" fill="none" xmlns="http://www.w3.org/2000/svg">
<path fill-rule="evenodd" clip-rule="evenodd" d="M25.6382 27.225C22.9204 29.577 19.3764 31 15.5 31C6.93959 31 0 24.0604 0 15.5C0 6.93959 6.93959 0 15.5 0C24.0604 0 31 6.93959 31 15.5C31 19.3179 29.6197 22.8134 27.3308 25.5146C27.6422 25.5583 27.9425 25.6998 28.182 25.9393L39.0606 36.818C39.6464 37.4038 39.6464 38.3535 39.0606 38.9393C38.4749 39.5251 37.5251 39.5251 36.9393 38.9393L26.0606 28.0606C25.8251 27.8251 25.6843 27.5308 25.6382 27.225ZM28 15.5C28 22.4036 22.4036 28 15.5 28C8.59644 28 3 22.4036 3 15.5C3 8.59644 8.59644 3 15.5 3C22.4036 3 28 8.59644 28 15.5Z" fill="black"/>
</svg>
