<svg width="35" height="39" viewBox="0 0 35 39" fill="none" xmlns="http://www.w3.org/2000/svg">
<path fill-rule="evenodd" clip-rule="evenodd" d="M6.32423 28.7726C4.0812 31.776 3.14862 35.4735 2.99482 38.0881L0 37.9119C0.179537 34.8598 1.24696 30.5574 3.92059 26.9775C6.64278 23.3325 10.9929 20.5001 17.4974 20.5C20.025 20.5 23.8417 21.3183 27.3145 23.8322C30.8323 26.3786 33.9175 30.6097 34.9787 37.2638L32.0161 37.7362C31.0773 31.8495 28.4126 28.3306 25.5553 26.2623C22.6531 24.1613 19.4698 23.5 17.4974 23.5C12.002 23.5001 8.51871 25.8343 6.32423 28.7726Z" fill="black"/>
<path fill-rule="evenodd" clip-rule="evenodd" d="M16.9974 18C21.1395 18 24.4974 14.6421 24.4974 10.5C24.4974 6.35786 21.1395 3 16.9974 3C12.8553 3 9.49741 6.35786 9.49741 10.5C9.49741 14.6421 12.8553 18 16.9974 18ZM16.9974 21C22.7964 21 27.4974 16.299 27.4974 10.5C27.4974 4.70101 22.7964 0 16.9974 0C11.1984 0 6.49741 4.70101 6.49741 10.5C6.49741 16.299 11.1984 21 16.9974 21Z" fill="black"/>
</svg>
